<mxfile host="app.diagrams.net" modified="2020-11-04T19:09:54.536Z" agent="5.0 (Macintosh; Intel Mac OS X 10_15_7) AppleWebKit/537.36 (KHTML, like Gecko) Chrome/86.0.4240.111 Safari/537.36" etag="pXAUSHE9kJko3jgN1Dzp" version="13.9.0" type="github">
  <diagram id="shOIHBNTdVXyQENOG2MJ" name="Page-1">
    <mxGraphModel dx="1002" dy="684" grid="1" gridSize="10" guides="1" tooltips="1" connect="1" arrows="1" fold="1" page="1" pageScale="1" pageWidth="850" pageHeight="1100" math="0" shadow="0">
      <root>
        <mxCell id="0" />
        <mxCell id="1" parent="0" />
        <mxCell id="PtWqGTMRqGZ6nkQbnNxm-64" value="" style="rounded=0;whiteSpace=wrap;html=1;strokeWidth=3;opacity=60;dashed=1;fillColor=none;strokeColor=#6c8ebf;" parent="1" vertex="1">
          <mxGeometry x="405" y="250" width="890" height="430" as="geometry" />
        </mxCell>
        <mxCell id="PtWqGTMRqGZ6nkQbnNxm-22" value="" style="rounded=0;whiteSpace=wrap;html=1;dashed=1;fillColor=#d5e8d4;strokeColor=#82b366;opacity=30;strokeWidth=3;" parent="1" vertex="1">
          <mxGeometry x="650" y="300" width="600" height="350" as="geometry" />
        </mxCell>
        <mxCell id="PtWqGTMRqGZ6nkQbnNxm-1" value="&lt;font style=&quot;font-size: 15px&quot;&gt;Application&lt;/font&gt;" style="rounded=1;whiteSpace=wrap;html=1;fillColor=#fff2cc;strokeColor=#d6b656;" parent="1" vertex="1">
          <mxGeometry x="180" y="485" width="90" height="80" as="geometry" />
        </mxCell>
        <mxCell id="PtWqGTMRqGZ6nkQbnNxm-25" value="&lt;font style=&quot;font-size: 15px&quot;&gt;TCP Router&lt;/font&gt;" style="rounded=1;whiteSpace=wrap;html=1;fillColor=#d5e8d4;strokeColor=#82b366;" parent="1" vertex="1">
          <mxGeometry x="800" y="470" width="100" height="110" as="geometry" />
        </mxCell>
        <mxCell id="PtWqGTMRqGZ6nkQbnNxm-28" value="" style="endArrow=classic;html=1;exitX=1;exitY=0.5;exitDx=0;exitDy=0;" parent="1" source="PtWqGTMRqGZ6nkQbnNxm-25" target="PtWqGTMRqGZ6nkQbnNxm-36" edge="1">
          <mxGeometry width="50" height="50" relative="1" as="geometry">
            <mxPoint x="870" y="490" as="sourcePoint" />
            <mxPoint x="965.7819999999999" y="435.98199999999997" as="targetPoint" />
          </mxGeometry>
        </mxCell>
        <mxCell id="PtWqGTMRqGZ6nkQbnNxm-38" value="&lt;font style=&quot;font-size: 20px&quot;&gt;Pivotal Platform Foundation&lt;/font&gt;" style="text;html=1;strokeColor=none;fillColor=none;align=center;verticalAlign=middle;whiteSpace=wrap;rounded=0;opacity=90;" parent="1" vertex="1">
          <mxGeometry x="653.52" y="310" width="290" height="20" as="geometry" />
        </mxCell>
        <mxCell id="PtWqGTMRqGZ6nkQbnNxm-40" value="&lt;font style=&quot;font-size: 15px&quot;&gt;Load Balancer&lt;/font&gt;" style="points=[[0.015,0.015,0],[0.985,0.015,0],[0.985,0.985,0],[0.015,0.985,0],[0.25,0,0],[0.5,0,0],[0.75,0,0],[1,0.25,0],[1,0.5,0],[1,0.75,0],[0.75,1,0],[0.5,1,0],[0.25,1,0],[0,0.75,0],[0,0.5,0],[0,0.25,0]];verticalLabelPosition=bottom;html=1;verticalAlign=top;aspect=fixed;align=center;pointerEvents=1;shape=mxgraph.cisco19.rect;prIcon=load_balancer;fillColor=#FAFAFA;strokeColor=#990000;opacity=90;" parent="1" vertex="1">
          <mxGeometry x="450" y="485" width="102.4" height="80" as="geometry" />
        </mxCell>
        <mxCell id="PtWqGTMRqGZ6nkQbnNxm-45" value="" style="endArrow=classic;html=1;entryX=0;entryY=0.5;entryDx=0;entryDy=0;entryPerimeter=0;exitX=1;exitY=0.5;exitDx=0;exitDy=0;" parent="1" source="PtWqGTMRqGZ6nkQbnNxm-1" target="PtWqGTMRqGZ6nkQbnNxm-40" edge="1">
          <mxGeometry width="50" height="50" relative="1" as="geometry">
            <mxPoint x="460" y="525" as="sourcePoint" />
            <mxPoint x="510" y="480" as="targetPoint" />
          </mxGeometry>
        </mxCell>
        <mxCell id="PtWqGTMRqGZ6nkQbnNxm-46" value="" style="endArrow=classic;html=1;entryX=0;entryY=0.5;entryDx=0;entryDy=0;exitX=1;exitY=0.5;exitDx=0;exitDy=0;exitPerimeter=0;" parent="1" source="PtWqGTMRqGZ6nkQbnNxm-40" target="PtWqGTMRqGZ6nkQbnNxm-70" edge="1">
          <mxGeometry width="50" height="50" relative="1" as="geometry">
            <mxPoint x="662.4" y="524.5" as="sourcePoint" />
            <mxPoint x="762.4" y="524.5" as="targetPoint" />
          </mxGeometry>
        </mxCell>
        <mxCell id="PtWqGTMRqGZ6nkQbnNxm-47" value="&lt;font style=&quot;font-size: 15px&quot;&gt;amqps.example.com:2000&lt;br&gt;&lt;/font&gt;" style="text;html=1;strokeColor=none;fillColor=none;align=center;verticalAlign=middle;whiteSpace=wrap;rounded=0;opacity=30;rotation=-46;" parent="1" vertex="1">
          <mxGeometry x="220" y="600" width="170" height="20" as="geometry" />
        </mxCell>
        <mxCell id="PtWqGTMRqGZ6nkQbnNxm-54" value="&lt;font style=&quot;font-size: 15px&quot;&gt;10.0.112.10:2000&lt;br&gt;&lt;/font&gt;" style="text;html=1;strokeColor=none;fillColor=none;align=center;verticalAlign=middle;whiteSpace=wrap;rounded=0;opacity=30;rotation=-46;" parent="1" vertex="1">
          <mxGeometry x="510" y="589" width="170" height="20" as="geometry" />
        </mxCell>
        <mxCell id="PtWqGTMRqGZ6nkQbnNxm-65" value="&lt;font style=&quot;font-size: 20px&quot;&gt;IaaS&lt;/font&gt;" style="text;html=1;strokeColor=none;fillColor=none;align=center;verticalAlign=middle;whiteSpace=wrap;rounded=0;opacity=90;" parent="1" vertex="1">
          <mxGeometry x="420" y="270" width="80" height="20" as="geometry" />
        </mxCell>
        <mxCell id="PtWqGTMRqGZ6nkQbnNxm-69" value="" style="ellipse;whiteSpace=wrap;html=1;aspect=fixed;strokeColor=#67AB9F;strokeWidth=3;fillColor=none;" parent="1" vertex="1">
          <mxGeometry x="790" y="492.96" width="17.04" height="17.04" as="geometry" />
        </mxCell>
        <mxCell id="PtWqGTMRqGZ6nkQbnNxm-70" value="" style="ellipse;whiteSpace=wrap;html=1;aspect=fixed;strokeColor=#FF8000;strokeWidth=3;fillColor=none;" parent="1" vertex="1">
          <mxGeometry x="790" y="540" width="17.04" height="17.04" as="geometry" />
        </mxCell>
        <mxCell id="PtWqGTMRqGZ6nkQbnNxm-72" value="&lt;font style=&quot;font-size: 14px&quot;&gt;PAS tile ports: 1024-1099&lt;/font&gt;" style="text;html=1;strokeColor=#82b366;fillColor=#d5e8d4;align=center;verticalAlign=middle;whiteSpace=wrap;rounded=0;opacity=60;" parent="1" vertex="1">
          <mxGeometry x="680" y="445" width="110" height="40" as="geometry" />
        </mxCell>
        <mxCell id="PtWqGTMRqGZ6nkQbnNxm-74" value="&lt;font style=&quot;font-size: 14px&quot;&gt;RMQ tile ports: 2000-3000&lt;/font&gt;" style="text;html=1;strokeColor=#d79b00;fillColor=#ffe6cc;align=center;verticalAlign=middle;whiteSpace=wrap;rounded=0;opacity=60;" parent="1" vertex="1">
          <mxGeometry x="687.04" y="570" width="102.96" height="40" as="geometry" />
        </mxCell>
        <mxCell id="PtWqGTMRqGZ6nkQbnNxm-75" style="edgeStyle=orthogonalEdgeStyle;rounded=0;orthogonalLoop=1;jettySize=auto;html=1;exitX=0.5;exitY=1;exitDx=0;exitDy=0;" parent="1" source="PtWqGTMRqGZ6nkQbnNxm-74" target="PtWqGTMRqGZ6nkQbnNxm-74" edge="1">
          <mxGeometry relative="1" as="geometry" />
        </mxCell>
        <mxCell id="YxkPzAn_cyUcMf1df-wO-6" value="" style="group" parent="1" vertex="1" connectable="0">
          <mxGeometry x="953.48" y="430" width="290" height="155" as="geometry" />
        </mxCell>
        <mxCell id="PtWqGTMRqGZ6nkQbnNxm-36" value="" style="rounded=0;whiteSpace=wrap;html=1;fillColor=#ffe6cc;strokeColor=#d79b00;opacity=90;" parent="YxkPzAn_cyUcMf1df-wO-6" vertex="1">
          <mxGeometry x="76.51999999999998" y="35" width="130" height="120" as="geometry" />
        </mxCell>
        <mxCell id="PtWqGTMRqGZ6nkQbnNxm-39" value="&lt;font style=&quot;font-size: 15px&quot;&gt;RMQ Service Instance &lt;br&gt;(S&lt;/font&gt;&lt;span style=&quot;font-size: 15px&quot;&gt;ervice-gateway enabled)&lt;/span&gt;" style="text;html=1;strokeColor=none;fillColor=none;align=center;verticalAlign=middle;whiteSpace=wrap;rounded=0;opacity=90;" parent="YxkPzAn_cyUcMf1df-wO-6" vertex="1">
          <mxGeometry width="290" height="20" as="geometry" />
        </mxCell>
        <mxCell id="PtWqGTMRqGZ6nkQbnNxm-18" value="" style="shape=image;verticalLabelPosition=bottom;labelBackgroundColor=#ffffff;verticalAlign=top;aspect=fixed;imageAspect=0;image=data:image/webp,UklGRrIDAABXRUJQVlA4TKYDAAAv/8A/EAaKbSRJkqRUdXevWKe/EP1ETpUj+57OmP+QRduWIUkRpbZt2+7+tG3b1p/t7rFt27Zt256yIuNNwH78rG6em3yhWHivMt972HqNBjTpUdUM1/lUkVR4q3I/e8w2zQd04WeONX4Sasp3RM0ZzmyLfSvUVOx89S+rPSLU9ZGu9Y5a7pQKZX1jwEWp722hst/1qKamF4XK/jP0kuR4WKjtS/Vq/YndJtT2q+ZXZJVQ3eW1zJYWa3dfkGp+LKdM50pHrk+F6jIGX49ZXd/xSkZLy7Wrr8cNE/hQViEXCPX9IudyfDKBCrULeWUCiXaXI3+C1rGQHyZowy5HxQx61Tmy/DqDkVHImsKoO6Tnx58ey0/35afb8tN1+ekSn84ffzotPx2Xnw7LT/vlp1182n78abP8tI5Pq48/LZefFvFpHt/ZPD7N4juaxafp8jubxKdJfBovP43iOxvFdzSMT8P4NFh+6sd31I9PveWn7vJTZ/mp/fGn1vI7asan5uqTLj+Z9adGepLlp/Ljby8/5fHtQrL9lklrWEct+TOYeIcMr6OfdAZb7pAL6zjeM3r0DsnXsorm/p1Chb43qD0qt8aZ5zFhTm+ocYPaLWeNCkcd9wqzelz9G9Q+MunIe5c6lvlWmNf3lqlzf7r94HanHXOy21nntvNduF3k0r1dubdrXNeud1O3W7Y7vOR/YW7/e80D7v9x3e58CzX+WW65YldqEV63v0xIr5WZkV7L1z299pSs9KSGpdcuiM+78fkvPuXx7a//vv77XxXyve1eN7j2xW72sE9VxKPMzcaoOaB3ijW22PPSZKTu0WFA7z9iI3yUi1Krf8UDKqm6q1NRbMKAqspyNBMZCwdUV5ZrI3HVgCqr6fNA/KNRqW2yNA9HB1RblrfjkNGp2LYpDh8fWdV0kKTh+gFV/zvL72nYX257LQ3b6nkyDZvrefTrv3+ds7WeJ9Kwp55X0nB1ObFf0vDeGVfTWpKGSm2qWSWk0XYXE3spD7+qXctwmTza2VKqekcIRKUJhcTOCom0/w0pc8S2STNp+aYWkeuojBBKS1ymcQV9vSBMeZO6/euMfmfWe1Qzxp3KhWi6ZfzkYZc67eSLnXWN5/0nTHujfuyv/77++x8i8vPy/zM+ysuHz7giL5c/Y2ReRjwj22tpbdnPbIOVZqXUoAE9b7UkKcke0CstVZiTQkv2a3VzvyQjiQd0G9Crz1gnu9zuBa+F226zUxfxgB4G;" parent="YxkPzAn_cyUcMf1df-wO-6" vertex="1">
          <mxGeometry x="96.51999999999998" y="46.52000000000004" width="96.96" height="96.96" as="geometry" />
        </mxCell>
        <mxCell id="xWXYSH2qemE91IOcYuPP-11" value="" style="group" parent="1" vertex="1" connectable="0">
          <mxGeometry x="180.00000000000003" y="250" width="225.03999999999996" height="134" as="geometry" />
        </mxCell>
        <mxCell id="xWXYSH2qemE91IOcYuPP-2" value="&lt;div&gt;&lt;br&gt;&lt;/div&gt;&lt;div&gt;&lt;b&gt; PAS ti&lt;/b&gt;&lt;b&gt;le ports:&lt;/b&gt;&lt;/div&gt;A range of Ports to facilitate TCP traffic to Apps in Pivotal Application Service." style="text;html=1;strokeColor=none;fillColor=none;align=left;verticalAlign=middle;whiteSpace=wrap;rounded=0;" parent="xWXYSH2qemE91IOcYuPP-11" vertex="1">
          <mxGeometry x="25.039999999999964" width="200" height="70" as="geometry" />
        </mxCell>
        <mxCell id="xWXYSH2qemE91IOcYuPP-3" value="" style="ellipse;whiteSpace=wrap;html=1;aspect=fixed;strokeColor=#67AB9F;strokeWidth=3;fillColor=none;" parent="xWXYSH2qemE91IOcYuPP-11" vertex="1">
          <mxGeometry y="16" width="17.04" height="17.04" as="geometry" />
        </mxCell>
        <mxCell id="xWXYSH2qemE91IOcYuPP-6" value="" style="ellipse;whiteSpace=wrap;html=1;aspect=fixed;strokeColor=#FF8000;strokeWidth=3;fillColor=none;" parent="xWXYSH2qemE91IOcYuPP-11" vertex="1">
          <mxGeometry y="87" width="17.04" height="17.04" as="geometry" />
        </mxCell>
        <mxCell id="xWXYSH2qemE91IOcYuPP-10" value="&lt;div&gt;&lt;br&gt;&lt;/div&gt;&lt;div&gt;&lt;b&gt; RMQ ti&lt;/b&gt;&lt;b&gt;le ports:&lt;/b&gt;&lt;/div&gt;A range of Ports used by RabbitMQ service instance" style="text;html=1;strokeColor=none;fillColor=none;align=left;verticalAlign=middle;whiteSpace=wrap;rounded=0;" parent="xWXYSH2qemE91IOcYuPP-11" vertex="1">
          <mxGeometry x="24.039999999999964" y="64" width="176" height="70" as="geometry" />
        </mxCell>
      </root>
    </mxGraphModel>
  </diagram>
</mxfile>
